<svg version="1.0" xmlns="http://www.w3.org/2000/svg" width="1920px" height="1920px" viewBox="0 0 1920 1920" preserveAspectRatio="xMidYMid meet">
 <g fill="#000000">
  
  <path d="M959.06 627.75 c-2.63 -15.75 -12.38 -42.38 -19.50 -53.44 -12 -18.56 -26.81 -27.75 -57.38 -35.44 -11.81 -3 -12.19 -3.19 -12.19 -9 0 -6 0.19 -6.19 13.88 -9.38 30 -6.94 48.38 -20.63 59.44 -43.50 5.81 -12.56 13.50 -39.38 15.75 -56.44 1.31 -9.75 1.31 -9.94 7.69 -9.94 3.56 0 6.38 0.38 6.38 0.75 0 0.38 1.31 7.69 3 16.31 11.25 60.75 28.50 81.94 76.31 93.19 12.19 3 12.56 3.19 12.56 8.81 0 5.63 -0.19 5.81 -14.63 8.81 -41.44 8.44 -63.19 31.88 -73.88 78.94 l-4.13 18.19 -6 0 c-5.63 0 -6.19 -0.56 -7.31 -7.88z" data-index="1" style="opacity: 1; visibility: hidden;"></path>
 </g>
 <g fill="#ffffff">
  <path d="M959.25 1353.38 c-3.38 -5.44 -19.13 -29.63 -34.50 -53.63 -66.56 -102.38 -99.56 -135.56 -203.81 -204.19 -57.94 -38.25 -77.63 -58.88 -90.56 -94.69 -4.50 -12.19 -5.06 -16.31 -5.06 -38.06 0.19 -28.50 2.81 -40.13 15 -66 15.94 -33.75 28.50 -48.94 105.94 -127.13 34.69 -35.06 66.56 -67.88 70.88 -72.94 4.31 -5.06 8.44 -8.63 9 -8.06 1.88 1.69 -17.25 36.75 -29.25 53.25 -6 8.63 -21.94 29.25 -35.25 45.94 -31.13 39.19 -50.06 67.69 -65.25 98.06 -15 30.19 -19.50 47.25 -19.50 73.50 0 32.81 9.19 52.50 38.44 82.88 14.63 15.19 42.19 39.56 44.63 39.56 0.38 0 1.31 -6.94 1.88 -15.38 0.94 -14.44 6.19 -36.75 8.06 -34.88 0.38 0.56 2.44 7.50 4.50 15.75 10.50 40.88 23.25 61.13 66.94 106.13 17.44 17.81 38.25 40.13 46.31 49.31 31.69 36.38 63.94 83.25 74.44 108.94 l4.31 10.13 11.63 -22.50 c24 -45.75 56.25 -87.75 111.94 -145.69 17.06 -17.81 34.88 -37.69 39.75 -44.44 11.63 -16.50 22.50 -40.31 27.56 -60.94 2.44 -9.38 4.88 -17.06 5.44 -17.06 2.44 0 6 18 7.13 35.44 l1.13 17.81 16.88 -14.25 c19.50 -16.31 42.56 -40.13 51 -52.13 14.81 -21.94 20.25 -39.19 20.06 -65.63 -0.19 -41.06 -18.56 -75.94 -84 -160.31 -17.81 -22.69 -36.38 -47.06 -41.63 -54.38 -12.75 -17.63 -28.88 -44.25 -28.88 -47.44 0 -3.75 147 144 161.44 162.19 44.06 55.69 54.75 115.31 29.81 165.19 -12.94 25.88 -31.69 45.19 -63.38 65.63 -69.19 44.63 -102.38 69.94 -136.31 104.25 -27.56 27.56 -51.75 59.63 -88.13 116.44 -34.31 53.25 -38.25 59.06 -40.31 59.06 -1.13 0 -4.69 -4.50 -8.25 -9.75z" data-index="2" style="opacity: 1;"></path>
  <path d="M1051.88 1310.25 c0 -2.25 11.44 -26.06 18.75 -39 19.31 -34.31 51.94 -69.94 82.50 -90.38 26.25 -17.44 82.50 -44.06 82.50 -39 0 0.94 -16.13 15.38 -36 32.25 -39.94 33.75 -71.63 62.81 -117.19 107.25 -16.88 16.31 -30.56 29.25 -30.56 28.88z" data-index="3"></path>
  <path d="M852.19 1279.31 c-63.19 -60.94 -105.19 -98.44 -150.75 -135 -0.38 -0.38 -0.38 -0.94 0 -1.50 1.31 -1.13 29.81 10.13 46.69 18.75 54.38 27.38 86.81 60.19 119.81 121.50 5.44 10.13 9.56 18.75 9.38 19.13 -0.38 0.19 -11.63 -10.13 -25.13 -22.88z" data-index="4"></path>
  <path d="M964.13 1222.50 c-8.81 -22.13 -12.56 -30 -20.06 -41.06 -10.88 -16.69 -23.25 -27.19 -57.94 -49.69 -49.69 -32.44 -69.94 -59.25 -79.13 -104.25 -3.56 -18.19 -2.81 -50.44 1.69 -66.56 9.94 -34.69 30.56 -64.50 58.69 -84.56 22.13 -15.75 62.44 -32.06 75.56 -30.38 4.13 0.56 1.88 2.25 -12.94 9.75 -44.06 22.50 -66.75 43.69 -84.38 78.94 -31.69 63 -11.44 133.69 49.69 172.69 8.25 5.25 20.63 13.13 27.56 17.44 13.88 8.81 29.06 23.06 37.50 35.44 l5.44 8.06 7.13 -10.88 c9.19 -14.44 25.88 -29.25 47.06 -41.81 51.19 -30.56 76.13 -67.31 79.88 -117.19 3.38 -44.44 -17.81 -89.44 -56.44 -120.38 -12 -9.56 -47.06 -28.69 -52.69 -28.69 -2.63 0 -5.44 -3.38 -4.13 -4.88 1.50 -1.31 35.25 7.88 47.63 12.94 22.31 9 48.38 30 65.81 52.88 8.63 11.44 19.13 33.56 23.44 49.50 5.44 20.63 5.44 52.13 0 72.94 -11.81 44.06 -30.94 68.63 -78.75 100.50 -13.31 9 -28.88 20.44 -34.69 25.69 -12.19 10.88 -28.50 34.31 -37.69 54.38 -6 13.13 -6.38 13.69 -8.25 9.19z" data-index="5" style="opacity: 1;"></path>
  <path d="M944.06 1069.31 c-21.94 -7.88 -37.31 -21.38 -47.44 -41.81 -4.50 -9.38 -5.06 -12.19 -5.06 -30.94 0 -19.50 0.38 -21.38 6.19 -33.19 7.69 -15.75 24 -31.31 39.19 -37.31 8.81 -3.56 14.63 -4.31 29.63 -4.50 16.88 0 19.88 0.56 29.44 5.25 49.13 24 58.31 89.25 18 125.81 -13.88 12.56 -27 18 -46.50 19.13 -10.50 0.75 -16.50 0 -23.44 -2.44z" data-index="6" style="opacity: 1;"></path>
  <path d="M745.50 960.94 c-2.06 -5.63 2.63 -47.63 7.50 -64.13 9.19 -31.69 24.56 -57.75 60 -101.06 26.06 -32.06 54.56 -69.94 63.94 -85.31 9.94 -15.75 28.50 -53.06 37.31 -74.25 3.75 -9 7.31 -16.88 7.69 -17.44 0.56 -0.56 0.56 6.56 -0.19 15.75 -3.38 47.63 -22.31 96.19 -53.63 137.81 -6.94 9.19 -24.38 30.19 -38.44 46.31 -50.25 57.38 -67.69 86.06 -78.56 128.81 -2.63 10.31 -4.88 15.38 -5.63 13.50z" data-index="7"></path>
  <path d="M1184.25 955.69 c-3.19 -21.38 -16.13 -51.38 -32.44 -76.13 -11.44 -17.06 -25.69 -34.50 -61.13 -75 -36.19 -41.25 -54.38 -70.88 -66.56 -109.13 -9 -28.31 -17.06 -79.13 -11.81 -75.94 1.13 0.75 2.06 2.44 2.06 3.56 0 3.56 17.06 43.13 27.94 64.88 18.38 36.38 31.13 54.94 78 113.63 15.56 19.69 32.06 41.06 36.56 47.63 10.31 15.38 21.19 39 25.13 54.56 4.13 16.50 7.31 50.63 5.25 56.25 -1.50 4.13 -1.88 3.56 -3 -4.31z" data-index="8" style="opacity: 1;"></path>
  <path d="M958.31 799.31 c-2.63 -3.19 -3.56 -6.38 -2.81 -8.81 3.75 -13.13 23.25 -10.50 23.25 3.19 0 10.88 -13.50 14.63 -20.44 5.63z" data-index="9"></path>
  <path d="M965.63 740.63 c0 -7.88 -9.56 -66.75 -12.94 -80.06 -11.06 -43.31 -29.44 -78.38 -49.31 -94.69 -18.94 -15.56 -36.94 -22.50 -76.50 -29.63 -22.13 -3.94 -28.31 -6 -25.88 -8.44 0.56 -0.56 13.69 -3.19 28.88 -5.63 41.44 -6.75 57.75 -13.13 75.38 -29.81 29.81 -27.94 41.44 -64.50 53.81 -169.88 5.63 -49.13 6.56 -54.38 8.25 -54.38 0.75 0 2.81 13.69 4.50 30.56 11.44 106.50 22.88 150.94 46.69 181.50 20.25 26.06 42 36.38 90.75 42.94 30.94 4.13 29.25 6.38 -12 14.81 -37.13 7.69 -51.56 14.25 -70.31 32.06 -7.50 6.94 -16.31 17.63 -19.88 23.44 -15.56 25.69 -27.19 65.44 -34.13 115.31 -2.25 17.06 -4.88 31.69 -5.81 32.81 -0.94 0.94 -1.50 0.56 -1.50 -0.94z m16.88 -162.38 c12.19 -25.13 30.75 -38.81 62.06 -45.56 l15 -3.19 -12.75 -3 c-47.81 -11.25 -65.06 -32.44 -76.50 -93.19 -1.50 -8.81 -3.19 -16.13 -3.56 -16.50 -0.38 -0.56 -1.31 3.75 -2.06 9.19 -2.25 17.25 -9.75 44.06 -15.75 56.63 -11.06 22.88 -27.19 34.88 -57.75 43.13 l-16.31 4.31 12.56 3 c30.94 7.88 45.75 16.88 57.75 35.63 7.31 11.25 16.88 37.50 19.69 53.81 l1.31 8.44 4.50 -18.75 c2.44 -10.31 7.69 -25.50 11.81 -33.94z" data-index="10" style="opacity: 1;"></path>
 </g>
</svg>